<svg height="130" viewBox="0 0 130 130" width="130" xmlns="http://www.w3.org/2000/svg" xmlns:xlink="http://www.w3.org/1999/xlink"><radialGradient id="a" cx="26.562627%" cy="107.702106%" r="99.107386%"><stop offset="0" stop-color="#fd5"/><stop offset=".1" stop-color="#fd5"/><stop offset=".5" stop-color="#ff543e"/><stop offset="1" stop-color="#c837ab"/></radialGradient><radialGradient id="b" cx="-16.750527%" cy="7.203832%" r="44.301409%"><stop offset="0" stop-color="#3771c8"/><stop offset=".128" stop-color="#3771c8"/><stop offset="1" stop-color="#60f" stop-opacity="0"/></radialGradient><g fill="none"><circle cx="65" cy="65" fill="url(#a)" r="65"/><circle cx="65" cy="65" fill="url(#b)" r="65"/><path d="m65.5036094 27c-10.4560672 0-11.7682892.0457187-15.8749987.2326042-4.0986885.1876875-6.8963843.8365729-9.3443682 1.7886458-2.5322034.9833542-4.680205 2.2987708-6.8201856 4.4395312-2.1415848 2.1399584-3.4570152 4.2879375-4.4435879 6.8193125-.9544891 2.4487605-1.6041834 5.2472292-1.7886645 9.3442709-.183679 4.1066667-.2318045 5.4196771-.2318045 15.8756354s.0465213 11.7641562.2326066 15.8708229c.1884915 4.0986459.8373837 6.8963125 1.7886645 9.3442708.9841665 2.5321771 2.2995968 4.6801563 4.4403795 6.8201146 2.1391786 2.1415625 4.2871801 3.4601877 6.8177794 4.4435417 2.449588.952073 5.2480859 1.600958 9.3459723 1.788646 4.1067095.186885 5.4181294.232604 15.8733946.232604 10.4568693 0 11.7650808-.045719 15.8717903-.232604 4.0986885-.187688 6.8995927-.836573 9.3491807-1.788646 2.5314014-.983354 4.6761946-2.3019792 6.8153731-4.4435417 2.1415848-2.1399583 3.457015-4.2879375 4.443588-6.8193125.946468-2.4487604 1.596162-5.2472291 1.788664-9.3442708.184481-4.1066667.232607-5.4156667.232607-15.871625s-.048126-11.7681667-.232607-15.8748333c-.192502-4.0986459-.842196-6.8963125-1.788664-9.3442709-.986573-2.532177-2.3020032-4.6801562-4.443588-6.8201145-2.1415848-2.1415625-4.2831696-3.4569792-6.8177794-4.4395313-2.4544005-.9520729-5.2537005-1.6009583-9.352389-1.7886458-4.1067095-.1868854-5.4141189-.2326042-15.8733946-.2326042zm-3.4538068 6.9380208c1.0250732-.0016041 2.1688559 0 3.4538068 0 10.2796071 0 11.4979844.0368959 15.5573704.221375 3.7537891.1716459 5.791102.798875 7.1482411 1.3258438 1.7966854.6978125 3.0776258 1.5319791 4.4243378 2.8794791 1.347514 1.3475 2.1816894 2.6308334 2.8811133 4.4275.5269743 1.3555209 1.1550121 3.3928125 1.3258576 7.1465625.1844811 4.0585417.2245857 5.2777084.2245857 15.5523959s-.0401046 11.4938541-.2245857 15.5523958c-.1716476 3.75375-.7988833 5.7910417-1.3258576 7.1465625-.6978197 1.7966667-1.5335993 3.0759896-2.8811133 4.4226875-1.3475141 1.3475-2.6268503 2.1816667-4.4243378 2.8794792-1.3555349.529375-3.394452 1.155-7.1482411 1.3266458-4.0585839.1844792-5.2777633.2245833-15.5573704.2245833-10.2804092 0-11.4987864-.0401041-15.5573704-.2245833-3.7537891-.17325-5.791102-.8004792-7.1490432-1.3274479-1.7966854-.6978125-3.0800321-1.5319792-4.4275461-2.8794792-1.3475141-1.3475-2.1816894-2.627625-2.8811134-4.4250937-.5269742-1.3555209-1.155012-3.3928125-1.3258575-7.1465625-.1844811-4.0585417-.2213773-5.2777084-.2213773-15.5588125 0-10.2811042.0368962-11.4938542.2213773-15.5523959.1716476-3.75375.7988833-5.7910416 1.3258575-7.1481666.6978198-1.7966667 1.5335993-3.08 2.8811134-4.4275 1.347514-1.3475 2.6308607-2.1816667 4.4275461-2.8810834 1.3571391-.529375 3.3952541-1.155 7.1490432-1.3274479 3.551662-.1604166 4.9280514-.2085416 12.1035636-.2165625zm24.0050001 6.3926042c-2.5506516 0-4.6200482 2.0669687-4.6200482 4.6183958 0 2.550625 2.0693966 4.62 4.6200482 4.62 2.5506515 0 4.6200481-2.069375 4.6200481-4.62s-2.0693966-4.62-4.6200481-4.62zm-20.5511933 5.3980208c-10.9188741 0-19.7715601 8.8525938-19.7715601 19.7713542s8.852686 19.7673437 19.7715601 19.7673437c10.9188742 0 19.7683518-8.8485833 19.7683518-19.7673437s-8.8502797-19.7713542-19.7691539-19.7713542zm0 6.9380209c7.0872822 0 12.833467 5.7453229 12.833467 12.8333333 0 7.0872083-5.7461848 12.8333333-12.833467 12.8333333-7.0880842 0-12.833467-5.746125-12.833467-12.8333333 0-7.0880104 5.7453828-12.8333333 12.833467-12.8333333z" fill="#fff"/></g></svg>