<svg height="43" viewBox="0 0 45 43" width="45" xmlns="http://www.w3.org/2000/svg" xmlns:xlink="http://www.w3.org/1999/xlink"><filter id="a"><feColorMatrix in="SourceGraphic" values="0 0 0 0 1.000000 0 0 0 0 0.000000 0 0 0 0 0.000000 0 0 0 1.000000 0"/></filter><g fill="none" fill-rule="evenodd" transform="translate(1.398)"><circle cx="22.424" cy="23" fill="#fff" r="17"/><g fill="#999" fill-rule="nonzero" filter="url(#a)"><path d="m19.555 25.898 6.034-4.333-6.085-4.421z"/><path d="m21.095 0c-11.65 0-21.095 9.445-21.095 21.095s9.445 21.096 21.095 21.096 21.096-9.445 21.096-21.096c-.001-11.65-9.445-21.095-21.096-21.095zm12.452 26.54c0 1.993-1.652 3.216-3.702 3.216h-16.052c-2.049 0-4.34-1.223-4.34-3.217v-9.915c0-2.005 2.291-3.372 4.34-3.372h16.052c.944-.066 1.874.257 2.573.894.7.637 1.108 1.532 1.13 2.478v9.915z"/></g></g></svg>